<svg width="48" height="56" viewBox="0 0 48 56" fill="none" xmlns="http://www.w3.org/2000/svg">
<g filter="url(#filter0_d_0_55)">
<path d="M7.06202 15.9801C5.40841 15.9801 4.06787 17.3206 4.06787 18.9743V32.9469C4.06787 34.6005 5.40841 35.9411 7.06202 35.9411C8.71564 35.9411 10.0562 34.6005 10.0562 32.9469V18.9743C10.0562 17.3206 8.71564 15.9801 7.06202 15.9801Z" fill="#FF0043"/>
<path d="M40.9956 15.9801C39.342 15.9801 38.0015 17.3206 38.0015 18.9743V32.9469C38.0015 34.6005 39.342 35.9411 40.9956 35.9411C42.6492 35.9411 43.9898 34.6005 43.9898 32.9469V18.9743C43.9898 17.3206 42.6493 15.9801 40.9956 15.9801Z" fill="#FF0043"/>
<path d="M35.0074 15.9801H13.0503C12.4991 15.9801 12.0522 16.427 12.0522 16.9782V32.9469C12.0518 35.3187 13.7206 37.363 16.0445 37.8374V44.9235C16.0445 46.5772 17.385 47.9177 19.0386 47.9177C20.6922 47.9177 22.0328 46.5772 22.0328 44.9235V37.9372H26.025V44.9235C26.025 46.5772 27.3656 47.9177 29.0192 47.9177C30.6728 47.9177 32.0133 46.5772 32.0133 44.9235V37.8374C34.3372 37.363 36.006 35.3187 36.0056 32.9469V16.9782C36.0055 16.427 35.5586 15.9801 35.0074 15.9801Z" fill="#FF0043"/>
<path d="M31.2849 4.14718L33.7181 1.71593C34.1145 1.33296 34.1255 0.701192 33.7426 0.304654C33.3596 -0.0917903 32.7278 -0.102738 32.3313 0.28014C32.323 0.288186 32.3148 0.296327 32.3068 0.304654L29.4724 3.13918C26.0008 1.63116 22.0591 1.63116 18.5876 3.13918L15.7532 0.302689C15.3567 -0.0802815 14.7249 -0.0692405 14.3419 0.327204C13.9684 0.714011 13.9684 1.32716 14.3419 1.71387L16.7731 4.14709C13.8092 6.10826 12.034 9.43186 12.0524 12.9858C12.0524 13.537 12.4993 13.9839 13.0505 13.9839H35.0076C35.5588 13.9839 36.0057 13.537 36.0057 12.9858C36.0239 9.43195 34.2488 6.10835 31.2849 4.14718Z" fill="#FF0043"/>
<circle cx="19.0386" cy="8.99369" r="0.998082" fill="#FAFAFA"/>
<circle cx="29.0191" cy="8.99369" r="0.998082" fill="#FAFAFA"/>
</g>
<defs>
<filter id="filter0_d_0_55" x="0.0678711" y="0" width="47.9219" height="55.9177" filterUnits="userSpaceOnUse" color-interpolation-filters="sRGB">
<feFlood flood-opacity="0" result="BackgroundImageFix"/>
<feColorMatrix in="SourceAlpha" type="matrix" values="0 0 0 0 0 0 0 0 0 0 0 0 0 0 0 0 0 0 127 0" result="hardAlpha"/>
<feOffset dy="4"/>
<feGaussianBlur stdDeviation="2"/>
<feComposite in2="hardAlpha" operator="out"/>
<feColorMatrix type="matrix" values="0 0 0 0 0 0 0 0 0 0 0 0 0 0 0 0 0 0 0.25 0"/>
<feBlend mode="normal" in2="BackgroundImageFix" result="effect1_dropShadow_0_55"/>
<feBlend mode="normal" in="SourceGraphic" in2="effect1_dropShadow_0_55" result="shape"/>
</filter>
</defs>
</svg>
