<svg width="48" height="56" viewBox="0 0 48 56" fill="none" xmlns="http://www.w3.org/2000/svg">
<g filter="url(#filter0_d_0_76)">
<path fill-rule="evenodd" clip-rule="evenodd" d="M26.8722 10.468C25.9428 10.8373 24.9775 11.0307 23.9735 11.004C23.7828 11.0013 23.7095 10.9507 23.6988 10.7493C23.5428 8.84933 24.0522 7.11067 24.9682 5.47333C26.5335 2.67733 28.9148 0.950667 32.0095 0.192C32.2742 0.125348 32.5467 0.0901898 32.8345 0.053057C32.9612 0.0367065 33.0909 0.0199732 33.2242 0C33.2289 0.127214 33.2347 0.247475 33.2404 0.363546C33.2489 0.539445 33.2569 0.705722 33.2602 0.872C33.3268 4.30133 31.1108 8.78533 26.8722 10.468ZM42.913 35.3626C42.9623 35.2177 43.011 35.0749 43.0602 34.936C39.3135 33.072 37.0282 30.2 36.7442 25.9547C36.4628 21.712 38.4002 18.5787 41.8028 16.2067C41.7793 16.1702 41.7455 16.1214 41.7131 16.0747L41.7002 16.056C40.3508 14.1627 38.5642 12.8627 36.3682 12.128C34.8188 11.6093 33.2268 11.3973 31.5948 11.5293C30.5042 11.616 29.4588 11.9227 28.4308 12.2973C27.4282 12.6693 26.4282 13.0493 25.4295 13.4307C24.5268 13.776 23.6295 13.776 22.7282 13.4373C21.7495 13.0707 20.7722 12.7013 19.7975 12.328C17.9455 11.6147 16.0562 11.428 14.1135 11.8853C10.8842 12.6413 8.42949 14.4747 6.68949 17.2733C5.30282 19.5 4.70015 21.9707 4.54682 24.5653C4.41615 26.7293 4.62949 28.864 5.07482 30.9813C6.10815 35.9053 8.24815 40.3013 11.4362 44.1893C12.1095 45.008 12.8295 45.7813 13.6868 46.416C14.3775 46.9267 15.1215 47.3227 15.9722 47.4813C16.9468 47.6653 17.9042 47.54 18.8268 47.2307C19.3817 47.0438 19.9243 46.8214 20.4668 46.5989C20.7025 46.5023 20.9382 46.4057 21.1748 46.312C23.3415 45.456 25.5322 45.3507 27.7348 46.1507C28.1744 46.3104 28.6056 46.4948 29.0367 46.6792C29.2712 46.7794 29.5057 46.8797 29.7415 46.976C30.6655 47.352 31.6242 47.5333 32.6228 47.5013C33.9522 47.4547 35.1015 46.944 36.1002 46.0987C36.6055 45.6733 37.0948 45.2147 37.5148 44.708C39.6908 42.1053 41.4842 39.2653 42.6655 36.0667C42.7533 35.8319 42.8341 35.5946 42.913 35.3626Z" fill="#FF0043"/>
</g>
<defs>
<filter id="filter0_d_0_76" x="0.508789" y="0" width="46.5513" height="55.567" filterUnits="userSpaceOnUse" color-interpolation-filters="sRGB">
<feFlood flood-opacity="0" result="BackgroundImageFix"/>
<feColorMatrix in="SourceAlpha" type="matrix" values="0 0 0 0 0 0 0 0 0 0 0 0 0 0 0 0 0 0 127 0" result="hardAlpha"/>
<feOffset dy="4"/>
<feGaussianBlur stdDeviation="2"/>
<feComposite in2="hardAlpha" operator="out"/>
<feColorMatrix type="matrix" values="0 0 0 0 0 0 0 0 0 0 0 0 0 0 0 0 0 0 0.25 0"/>
<feBlend mode="normal" in2="BackgroundImageFix" result="effect1_dropShadow_0_76"/>
<feBlend mode="normal" in="SourceGraphic" in2="effect1_dropShadow_0_76" result="shape"/>
</filter>
</defs>
</svg>
